<?xml version="1.0" encoding="utf-8" standalone="yes"?>
<!DOCTYPE svg PUBLIC "-//W3C//DTD SVG 1.1//EN" "http://www.w3.org/Graphics/SVG/1.1/DTD/svg11.dtd">
<svg width="936" height="816" viewBox="0 0 936 816" style="fill:none;stroke:none;fill-rule:evenodd;clip-rule:evenodd;stroke-linecap:round;stroke-linejoin:round;stroke-miterlimit:1.5;" version="1.1" xmlns="http://www.w3.org/2000/svg" xmlns:xlink="http://www.w3.org/1999/xlink"><style class="text-font-style fontImports" data-font-family="Shantell Sans">@import url('https://fonts.googleapis.com/css2?family=Shantell+Sans:wght@300..800&amp;display=block');</style><rect id="" x="0" y="0" width="936" height="816" style="fill: #ffffff;"></rect><g id="items" style="isolation: isolate"><g id="blend" style="mix-blend-mode: normal"><g id="g-root-tf_1i1i88y24uf-fill" data-item-order="-1145664"><g id="tf_1i1i88y24uf-fill" stroke="none" fill="#ffffff"><g><path d="M 0 0L 936 0L 936 816L 0 816Z"></path></g></g></g><g id="g-root-cp_0_g-0_1464en48xwidi-fill" data-item-order="-552925" transform="translate(266, 290)"></g><g id="g-root-cp_1_g-1_zqawio8xwj5s-fill" data-item-order="-552922" transform="translate(266, 290)"><g id="cp_1_g-1_zqawio8xwj5s-fill" stroke="none" fill="#ffd9d8"><g><path d="M 152 156.6L 156.3 148L 143 129.7L 134.1 147.7ZM 143 129.7L 114.8 133.9L 126.8 152.3L 156.3 148ZM 126.8 152.3L 142.1 127.8L 128.1 112.5L 114.8 133.9ZM 128.1 112.5L 74.1 140.2L 85.6 156.8L 142.1 127.8ZM 85.6 156.8L 160.5 88.1L 148.3 72.2L 74.1 140.2ZM 148.3 72.2L 46.4 138.1L 59 153.8L 160.5 88.1ZM 59 153.8L 154 59.7L 141.1 44.3L 46.4 138.1ZM 141.1 44.3L 26.1 124.2L 39.1 139.5L 154 59.7ZM 39.1 139.5L 135.3 39.8L 121.9 24.9L 26.1 124.2ZM 121.9 24.9L 16.8 105.1L 29.9 120.3L 135.3 39.8ZM 29.9 120.3L 122 29.8L 109.4 14.1L 16.8 105.1ZM 109.4 14.1L 3.2 82.6L 15.7 98.3L 122 29.8ZM 15.7 98.3L 95.7 20.1L 83.6 3.9L 3.2 82.6ZM 83.6 3.9L 15.4 41.8L 26.3 58.6L 95.7 20.1ZM 26.3 58.6L 59.6 33.9L 47.7 17.9L 15.4 41.8Z" fill-rule="nonzero"></path></g></g></g><g id="g-root-cp_3_g-3_qunw9s8xwjyi-fill" data-item-order="-552918" transform="translate(266, 482)"><g id="cp_3_g-3_qunw9s8xwjyi-fill" stroke="none" fill="#ffe4cb"><g><path d="M 27.9 138.6L 29.7 138.8L 43.3 120L 29.8 118.7ZM 43.3 120L 21.8 70.6L 5.2 82.5L 29.7 138.8ZM 5.2 82.5L 82.2 153.1L 97.2 139.6L 21.8 70.6ZM 97.2 139.6L 23.6 39.9L 8.3 52.8L 82.2 153.1ZM 8.3 52.8L 103.2 151.4L 118.5 138.5L 23.6 39.9ZM 118.5 138.5L 37.9 29L 22.6 42L 103.2 151.4ZM 22.6 42L 120.8 142.6L 136.5 130L 37.9 29ZM 136.5 130L 62 16.5L 46.4 29.3L 120.8 142.6ZM 46.4 29.3L 140.4 122.3L 155.4 109.1L 62 16.5ZM 155.4 109.1L 79.8 10.6L 65 24.1L 140.4 122.3ZM 65 24.1L 141.4 94.9L 157.5 82.6L 79.8 10.6ZM 157.5 82.6L 124.4 19.5L 107.7 30.8L 141.4 94.9ZM 107.7 30.8L 125.6 51.6L 146.5 45.3L 124.4 19.5ZM 146.5 45.3L 150.9 11L 129.7 19.1L 125.6 51.6ZM 129.7 19.1L 144.8 32.1L 157.8 16.9L 150.9 11Z" fill-rule="nonzero"></path></g></g></g><g id="g-root-cp_2_g-2_djtuzk8xwido-fill" data-item-order="-552914" transform="translate(458, 290)"><g id="cp_2_g-2_djtuzk8xwido-fill" stroke="none" fill="#c8ffe5"><g><path d="M 141.4 39.7L 138.6 26.8L 119.3 32.2L 121.9 44ZM 119.3 32.2L 141.6 97.1L 159 86.3L 138.6 26.8ZM 159 86.3L 80.7 6.5L 65.3 19.4L 141.6 97.1ZM 65.3 19.4L 134 117.5L 149.7 105L 80.7 6.5ZM 149.7 105L 63.8 10.8L 47.8 22.9L 134 117.5ZM 47.8 22.9L 120.9 141.3L 136.8 129L 63.8 10.8ZM 136.8 129L 40.5 28.5L 25.1 41.3L 120.9 141.3ZM 25.1 41.3L 104.7 152L 120.2 139.2L 40.5 28.5ZM 120.2 139.2L 26.9 40.5L 11.5 53.3L 104.7 152ZM 11.5 53.3L 85.3 155.6L 100.5 142.5L 26.9 40.5ZM 100.5 142.5L 21.3 66.5L 5 78.6L 85.3 155.6ZM 5 78.6L 37.1 142.4L 53.3 130.2L 21.3 66.5ZM 53.3 130.2L 31.8 110.5L 12.2 119.7L 37.1 142.4ZM 12.2 119.7L 14.3 157.8L 33.7 146L 31.8 110.5ZM 33.7 146L 17.9 136.7L 7.8 153.9L 14.3 157.8Z" fill-rule="nonzero"></path></g></g></g><g id="g-root-cp_4_g-4_940cv48xwj5y-fill" data-item-order="-552910" transform="translate(458, 482)"><g id="cp_4_g-4_940cv48xwj5y-fill" stroke="none" fill="#dce9ff"><g><path d="M 18.2 5.8L 13.9 9.1L 19.5 29.9L 30.3 21.7ZM 19.5 29.9L 51.5 33.8L 46.2 13L 13.9 9.1ZM 46.2 13L 19.5 32L 29.5 49.4L 51.5 33.8ZM 29.5 49.4L 94.7 19.8L 83.7 2.9L 19.5 32ZM 83.7 2.9L 2.9 75.7L 15 91.7L 94.7 19.8ZM 15 91.7L 118.1 26.8L 105.5 11.1L 2.9 75.7ZM 105.5 11.1L 10.3 107.6L 23.4 122.8L 118.1 26.8ZM 23.4 122.8L 139.2 39.1L 126.3 23.7L 10.3 107.6ZM 126.3 23.7L 23 124.5L 35.9 139.8L 139.2 39.1ZM 35.9 139.8L 149.4 58.5L 136.7 43L 23 124.5ZM 136.7 43L 42.2 130.9L 54.4 146.9L 149.4 58.5ZM 54.4 146.9L 157.9 82.1L 145.4 66.3L 42.2 130.9ZM 145.4 66.3L 69.8 140.6L 82.3 156.3L 157.9 82.1ZM 82.3 156.3L 147.1 114.5L 133.5 99.4L 69.8 140.6ZM 133.5 99.4L 102.6 137.8L 118.2 150.4L 147.1 114.5Z" fill-rule="nonzero"></path></g></g></g><g id="g-root-tx_besttigu_147ztwg8xwhe2-fill" data-item-order="0" transform="translate(74, 266)"><g id="tx_besttigu_147ztwg8xwhe2-fill" stroke="none" fill="#484848"><g><text style="font: 15px &quot;Shantell Sans&quot;, cursive; white-space: pre;" font-size="15px" font-family="'Shantell Sans', cursive"><tspan x="17.13" y="29" dominant-baseline="ideographic">Bestätigungsfehler </tspan><tspan x="93.52" y="47" dominant-baseline="ideographic">führt zu </tspan><tspan x="33.58" y="65" dominant-baseline="ideographic">verzerrten, aber </tspan><tspan x="100.36" y="83" dominant-baseline="ideographic">schwer </tspan><tspan x="34.95" y="101" dominant-baseline="ideographic">kontrollierbaren </tspan><tspan x="34.22" y="119" dominant-baseline="ideographic">Entscheidungen.</tspan></text></g></g></g><g id="g-root-tx_implemen_dbpov48xxvyk-fill" data-item-order="0" transform="translate(650, 230)"><g id="tx_implemen_dbpov48xxvyk-fill" stroke="none" fill="#484848"><g><text style="font: bold 20px &quot;Shantell Sans&quot;, cursive; white-space: pre;" font-weight="bold" font-size="20px" font-family="'Shantell Sans', cursive"><tspan x="12" y="35" dominant-baseline="ideographic">Implementierung </tspan><tspan x="12" y="59" dominant-baseline="ideographic">strukturierter </tspan><tspan x="12" y="83" dominant-baseline="ideographic">Entscheidungsprozesse</tspan></text></g></g></g><g id="g-root-tx_besttigu_1hitv6o8xwiyx-fill" data-item-order="0" transform="translate(14, 230)"><g id="tx_besttigu_1hitv6o8xwiyx-fill" stroke="none" fill="#484848"><g><text style="font: bold 20px &quot;Shantell Sans&quot;, cursive; white-space: pre;" font-weight="bold" font-size="20px" font-family="'Shantell Sans', cursive"><tspan x="14.84" y="35" dominant-baseline="ideographic">Bestätigungsfehler</tspan></text></g></g></g><g id="g-root-tx_2_18f2otc8xxxce-fill" data-item-order="0" transform="translate(650, 170)"><g id="tx_2_18f2otc8xxxce-fill" stroke="none" fill="#484848"><g><text style="font: bold 30px &quot;Shantell Sans&quot;, cursive; white-space: pre;" font-weight="bold" font-size="30px" font-family="'Shantell Sans', cursive"><tspan x="17.5" y="48" dominant-baseline="ideographic">2</tspan></text></g></g></g><g id="g-root-ic_circ_v48nj48xxvrj-fill" data-item-order="0" transform="translate(302, 326)"></g><g id="g-root-ic_assi_18f2v4w8xifwp-fill" data-item-order="0" transform="translate(494, 326)"></g><g id="g-root-tx_struktur_1uljqcg8xxy4l-fill" data-item-order="0" transform="translate(650, 314)"><g id="tx_struktur_1uljqcg8xxy4l-fill" stroke="none" fill="#484848"><g><text style="font: 15px &quot;Shantell Sans&quot;, cursive; white-space: pre;" font-size="15px" font-family="'Shantell Sans', cursive"><tspan x="12" y="32" dominant-baseline="ideographic">Strukturierte </tspan><tspan x="12" y="50" dominant-baseline="ideographic">Prozesse minimieren </tspan><tspan x="12" y="68" dominant-baseline="ideographic">Verzerrungen und </tspan><tspan x="12" y="86" dominant-baseline="ideographic">verbessern </tspan><tspan x="12" y="104" dominant-baseline="ideographic">Entscheidungen.</tspan></text></g></g></g><g id="g-root-tx_3_v2zyu88xsb2l-fill" data-item-order="0" transform="translate(170, 494)"><g id="tx_3_v2zyu88xsb2l-fill" stroke="none" fill="#484848"><g><text style="font: bold 30px &quot;Shantell Sans&quot;, cursive; white-space: pre;" font-weight="bold" font-size="30px" font-family="'Shantell Sans', cursive"><tspan x="17.5" y="48" dominant-baseline="ideographic">3</tspan></text></g></g></g><g id="g-root-tx_1_mgpteo8xwjr7-fill" data-item-order="0" transform="translate(170, 170)"><g id="tx_1_mgpteo8xwjr7-fill" stroke="none" fill="#484848"><g><text style="font: bold 30px &quot;Shantell Sans&quot;, cursive; white-space: pre;" font-weight="bold" font-size="30px" font-family="'Shantell Sans', cursive"><tspan x="15.17" y="48" dominant-baseline="ideographic">1</tspan></text></g></g></g><g id="g-root-tx_auswirku_1uuadk08xwhe0-fill" data-item-order="0" transform="translate(110, 38)"><g id="tx_auswirku_1uuadk08xwhe0-fill" stroke="none" fill="#484848"><g><text style="font: bold 25px &quot;Shantell Sans&quot;, cursive; white-space: pre;" font-weight="bold" font-size="25px" font-family="'Shantell Sans', cursive"><tspan x="12.29" y="42" dominant-baseline="ideographic">Auswirkungen und Kontrollierbarkeit kognitiver </tspan><tspan x="239.88" y="72" dominant-baseline="ideographic">Verzerrungen</tspan></text></g></g></g><g id="g-root-tx_4_1um6gww8xscg0-fill" data-item-order="0" transform="translate(650, 494)"><g id="tx_4_1um6gww8xscg0-fill" stroke="none" fill="#484848"><g><text style="font: bold 30px &quot;Shantell Sans&quot;, cursive; white-space: pre;" font-weight="bold" font-size="30px" font-family="'Shantell Sans', cursive"><tspan x="17.5" y="48" dominant-baseline="ideographic">4</tspan></text></g></g></g><g id="g-root-ic_pric_8yeckg8xlb7o-fill" data-item-order="0" transform="translate(302, 518)"></g><g id="g-root-tx_selbstre_dccffk8xsa9z-fill" data-item-order="0" transform="translate(650, 590)"><g id="tx_selbstre_dccffk8xsa9z-fill" stroke="none" fill="#484848"><g><text style="font: 15px &quot;Shantell Sans&quot;, cursive; white-space: pre;" font-size="15px" font-family="'Shantell Sans', cursive"><tspan x="12" y="32" dominant-baseline="ideographic">Selbstreflexion </tspan><tspan x="12" y="50" dominant-baseline="ideographic">ermöglicht bewusste </tspan><tspan x="12" y="68" dominant-baseline="ideographic">Kontrolle über </tspan><tspan x="12" y="86" dominant-baseline="ideographic">geringe </tspan><tspan x="12" y="104" dominant-baseline="ideographic">Auswirkungen.</tspan></text></g></g></g><g id="g-root-tx_ankereff_1uux44g8xqvpf-fill" data-item-order="0" transform="translate(74, 554)"><g id="tx_ankereff_1uux44g8xqvpf-fill" stroke="none" fill="#484848"><g><text style="font: bold 20px &quot;Shantell Sans&quot;, cursive; white-space: pre;" font-weight="bold" font-size="20px" font-family="'Shantell Sans', cursive"><tspan x="17.64" y="35" dominant-baseline="ideographic">Anker-Effekt</tspan></text></g></g></g><g id="g-root-tx_selbstre_qn6gps8xsbuu-fill" data-item-order="0" transform="translate(650, 554)"><g id="tx_selbstre_qn6gps8xsbuu-fill" stroke="none" fill="#484848"><g><text style="font: bold 20px &quot;Shantell Sans&quot;, cursive; white-space: pre;" font-weight="bold" font-size="20px" font-family="'Shantell Sans', cursive"><tspan x="12" y="35" dominant-baseline="ideographic">Selbstreflexion</tspan></text></g></g></g><g id="g-root-tx_ankereff_1hjglr48xqxac-fill" data-item-order="0" transform="translate(98, 590)"><g id="tx_ankereff_1hjglr48xqxac-fill" stroke="none" fill="#484848"><g><text style="font: 15px &quot;Shantell Sans&quot;, cursive; white-space: pre;" font-size="15px" font-family="'Shantell Sans', cursive"><tspan x="36.84" y="29" dominant-baseline="ideographic">Anker-Effekt </tspan><tspan x="50.38" y="47" dominant-baseline="ideographic">beeinflusst </tspan><tspan x="13.84" y="65" dominant-baseline="ideographic">Entscheidungen </tspan><tspan x="33.33" y="83" dominant-baseline="ideographic">subtil und ist </tspan><tspan x="53.95" y="101" dominant-baseline="ideographic">schwer zu </tspan><tspan x="49.58" y="119" dominant-baseline="ideographic">vermeiden.</tspan></text></g></g></g><g id="g-root-ic_4_zpooww8xmosu-fill" data-item-order="0" transform="translate(494, 518)"></g><g id="g-root-tf_1i1i88y24uf-stroke" data-item-order="-1145664"></g><g id="g-root-cp_0_g-0_1464en48xwidi-stroke" data-item-order="-552925" transform="translate(266, 290)"><g id="cp_0_g-0_1464en48xwidi-stroke" fill="none" stroke-linecap="round" stroke-linejoin="round" stroke-miterlimit="4" stroke="#484848" stroke-width="2"><g><path d="M 178 10C 177 28.4 177.8 46.9 178 65.3C 178.3 83.8 177.3 102.3 178 120.8C 178.8 140.5 179 160.2 178 179.9C 177 199.7 177.9 219.6 178 239.5C 178.1 256.6 178 273.7 178 290.8C 178 309.2 176.6 327.7 178 346M 10 178C 29.6 177.4 49.3 178.7 68.9 178C 86.4 177.3 103.9 177.5 121.3 178C 140 178.5 158.7 179.6 177.3 178C 195.3 176.4 213.5 179.7 231.5 178C 250.5 176.2 269.7 179.2 288.7 178C 307.8 176.8 326.9 176.9 346 178"></path><path d="M 178 10L 178 346M 10 177.9999L 346 178"></path></g></g></g><g id="g-root-cp_1_g-1_zqawio8xwj5s-stroke" data-item-order="-552922" transform="translate(266, 290)"><g id="cp_1_g-1_zqawio8xwj5s-stroke" fill="none" stroke-linecap="round" stroke-linejoin="round" stroke-miterlimit="4" stroke="#484848" stroke-width="4"><g><path d="M 141.8 122.1C 150 111 154 96.9 154 82C 154 61.7 144.7 44.1 132 30.2C 119.9 16.9 101.4 9.9 82 10C 61.9 10.1 44.8 19.4 30.6 31.6C 16.8 43.4 8.5 62.4 10 82C 11.5 102.3 19.4 119.8 32 133.8C 44.1 147.2 62.6 154.3 82 154C 96.3 153.8 110.2 150.7 120.8 142.6C 131.7 146.9 143.4 149 154 154C 149.6 143.5 145.9 132.7 141.8 122.1"></path><path d="M 141.7804 122.1418C 149.4968 110.673 154 96.8624 154 82C 154 42.2355 121.7645 10 82 10C 42.2355 10 10 42.2355 10 82C 10 121.7645 42.2355 154 82 154C 96.3009 154 109.628 149.8306 120.8321 142.6411L 154 154L 141.7804 122.1418Z"></path></g></g></g><g id="g-root-cp_3_g-3_qunw9s8xwjyi-stroke" data-item-order="-552918" transform="translate(266, 482)"><g id="cp_3_g-3_qunw9s8xwjyi-stroke" fill="none" stroke-linecap="round" stroke-linejoin="round" stroke-miterlimit="4" stroke="#484848" stroke-width="4"><g><path d="M 141.8 41.9C 151.1 52.1 155.5 67.2 154 82C 149.9 121.6 121.7 152.3 82 154C 64.1 154.8 47.3 147.8 35.1 136.6C 20.1 123 8.6 103.8 10 82C 11.2 63.8 17.8 48 27.9 34.5C 39.9 18.5 60.5 8.6 82 10C 96.3 10.9 108.8 15.7 120.8 21.4C 132.1 18.1 143 13.9 154 10C 148.6 20 146.5 31.5 141.8 41.9"></path><path d="M 141.7804 41.8582C 149.4968 53.327 154 67.1376 154 82C 154 121.7645 121.7645 154 82 154C 42.2355 154 10 121.7645 10 82C 10 42.2355 42.2355 10 82 10C 96.3009 10 109.628 14.1694 120.8321 21.3589L 154 10L 141.7804 41.8582Z"></path></g></g></g><g id="g-root-cp_2_g-2_djtuzk8xwido-stroke" data-item-order="-552914" transform="translate(458, 290)"><g id="cp_2_g-2_djtuzk8xwido-stroke" fill="none" stroke-linecap="round" stroke-linejoin="round" stroke-miterlimit="4" stroke="#484848" stroke-width="4"><g><path d="M 22.2 122.1C 14.2 110.9 9.2 96.8 10 82C 10.9 63.8 17.1 47.5 27.9 34.5C 40.6 19.1 60.5 8.6 82 10C 100.6 11.2 118.5 16.2 130.4 28.7C 143.9 42.9 152.9 60.9 154 82C 154.9 100.9 147.3 118.8 134.7 131C 120.9 144.5 102.8 153.7 82 154C 67.7 154.2 54.4 149.8 43.2 142.6C 32 145.9 20.7 149.3 10 154C 14.9 143.7 16.9 132.2 22.2 122.1"></path><path d="M 22.2196 122.1418C 14.5032 110.673 10 96.8624 10 82C 10 42.2355 42.2355 10 82 10C 121.7645 10 154 42.2355 154 82C 154 121.7645 121.7645 154 82 154C 67.6991 154 54.372 149.8306 43.1679 142.6411L 10 154L 22.2196 122.1418Z"></path></g></g></g><g id="g-root-cp_4_g-4_940cv48xwj5y-stroke" data-item-order="-552910" transform="translate(458, 482)"><g id="cp_4_g-4_940cv48xwj5y-stroke" fill="none" stroke-linecap="round" stroke-linejoin="round" stroke-miterlimit="4" stroke="#484848" stroke-width="4"><g><path d="M 22.2 41.9C 14.8 53.5 10.1 67.1 10 82C 9.9 102.8 17.8 122.9 33 134.7C 46.8 145.5 63.1 154.8 82 154C 103.8 153 123.9 144.7 136.6 128.9C 147 116 154.9 99.9 154 82C 153.3 68.2 150.4 55.2 143.4 44.4C 137.1 34.7 129.7 24.8 119 20.2C 107.4 15.3 95.5 9.1 82 10C 67.7 10.9 54.3 14.1 43.2 21.4C 32.6 16.4 21 13.8 10 10C 14 20.7 17.6 31.5 22.2 41.9"></path><path d="M 22.2196 41.8582C 14.5032 53.327 10 67.1376 10 82C 10 121.7645 42.2355 154 82 154C 121.7645 154 154 121.7645 154 82C 154 42.2355 121.7645 10 82 10C 67.6991 10 54.372 14.1694 43.1679 21.3589L 10 10L 22.2196 41.8582Z"></path></g></g></g><g id="g-root-tx_besttigu_147ztwg8xwhe2-stroke" data-item-order="0" transform="translate(74, 266)"></g><g id="g-root-tx_implemen_dbpov48xxvyk-stroke" data-item-order="0" transform="translate(650, 230)"></g><g id="g-root-tx_besttigu_1hitv6o8xwiyx-stroke" data-item-order="0" transform="translate(14, 230)"></g><g id="g-root-tx_2_18f2otc8xxxce-stroke" data-item-order="0" transform="translate(650, 170)"></g><g id="g-root-ic_circ_v48nj48xxvrj-stroke" data-item-order="0" transform="translate(302, 326)"><g id="ic_circ_v48nj48xxvrj-stroke" fill="none" stroke-linecap="round" stroke-linejoin="round" stroke-miterlimit="4" stroke="#484848" stroke-width="2"><g><path d="M 39.400002 35.199997C 43 34.900002 45.699997 32.200001 45.699997 28.900002C 45.699997 25.299999 43 22.900002 39.400002 22.299999C 36.099998 21.700001 33.099998 25.299999 33.099998 28.900002C 33.099998 32.200001 35.800003 35.5 39.400002 35.199997M 27.400002 52.599998C 27.700001 46.300003 32.799999 42.400002 39.099998 40.900002C 41.5 40.300003 44.5 41.199997 46 43M 65.199997 35.199997C 62.5 22.900002 52.300003 11.5 39.400002 13C 25 15.1 13 25 13 39.400002C 12.7 53.5 24.099998 62.800003 37.300003 65.800003M 61 70.300003C 60.699997 70 59.800003 70.899994 59.800003 71.5C 60.100002 72.100006 60.699997 72.399994 61 72.699997M 61 70.300003C 61.600002 70.300003 62.5 70.899994 62.199997 71.5C 62.199997 72.100006 61.600002 72.699997 61 72.699997M 61 63.699997C 62.199997 60.699997 60.399998 57.400002 61 54.699997M 78.399994 71.5C 79.600006 72.699997 79 74.800003 78.100006 76.600006C 77.5 78.100006 75.399994 79.300003 73.600006 79C 65.5 76.300003 56.800003 79.300003 48.099998 79C 46.300003 78.699997 44.199997 78.100006 43.599998 76.600006C 43.300003 74.800003 43 73 43.300003 71.5C 48.699997 63.399998 50.800003 53.800003 55.900002 46C 57.099998 44.199997 58.899998 42.400002 60.699997 43C 62.800003 43.300003 64.899994 43.900002 65.5 46C 69.100006 54.699997 75.100006 62.5 78.399994 71.5"></path><path d="M 39.444851 35.14555C 42.964901 35.14555 45.818501 32.292007 45.818501 28.77199C 45.818501 25.25197 42.964901 22.39843 39.444851 22.39843C 35.924831 22.39843 33.071289 25.25197 33.071289 28.77199C 33.071289 32.292007 35.924831 35.14555 39.444851 35.14555ZM 27.276371 52.666C 27.276371 46.197399 32.72374 40.75 39.19249 40.75C 41.684799 40.75 44.025398 41.558498 45.9613 42.9226M 65.313995 35.173092C 63.261398 22.65601 52.394199 13.10548 39.296173 13.10548C 24.73435 13.10548 12.929689 24.910149 12.929689 39.471939C 12.929689 53.409401 23.743629 64.820801 37.438721 65.773895M 61.124798 70.199203C 60.524803 70.199203 59.924797 70.799194 59.924797 71.3992C 59.924797 71.999207 60.524803 72.599197 61.124798 72.599197M 61.127201 70.199203C 61.727196 70.199203 62.327202 70.799194 62.327202 71.3992C 62.327202 71.999207 61.727196 72.599197 61.127201 72.599197M 61.125999 63.589901L 61.125999 54.589901M 78.526299 71.394402C 79.4263 72.894402 79.126305 74.9944 78.226303 76.4944C 77.326302 77.9944 75.526299 78.894402 73.726303 78.894402L 48.226299 78.894402C 46.4263 78.894402 44.626301 77.9944 43.726299 76.4944C 42.826298 74.9944 42.526299 72.894402 43.4263 71.394402L 56.026299 45.894402C 56.9263 44.094402 58.726299 42.894402 60.826302 42.894402C 62.9263 42.894402 64.726303 44.094402 65.626305 45.894402L 78.526299 71.394402Z"></path></g></g></g><g id="g-root-ic_assi_18f2v4w8xifwp-stroke" data-item-order="0" transform="translate(494, 326)"><g id="ic_assi_18f2v4w8xifwp-stroke" fill="none" stroke-linecap="round" stroke-linejoin="round" stroke-miterlimit="4" stroke="#484848" stroke-width="2"><g><path d="M 37.900002 63.100002C 39.099998 67.300003 41.800003 70.300003 46 71.199997C 50.199997 72.100006 53.800003 67.600006 54.099998 63.100002C 54.400002 58.600002 50.5 55.300003 46 55C 41.5 54.699997 37.900002 58.600002 37.900002 63.100002M 57.400002 80.5C 55.300003 76 50.800003 72.699997 46 73.300003C 41.199997 74.199997 36.699997 76 34.599998 80.5M 61.300003 63.100002C 60.399998 67.300003 64.899994 70.300003 69.399994 71.199997C 73.899994 71.800003 76.300003 67.300003 77.5 63.100002C 78.699997 58.899998 73.600006 53.800003 69.399994 55C 65.199997 56.5 60.399998 58.899998 61.300003 63.100002M 80.5 79.300003C 76.600006 76.600006 73 74.800003 68.800003 73.600006C 64.300003 72.100006 61 77.199997 57.400002 80.199997M 14.5 63.100002C 15.7 67.300003 18.1 70.600006 22.599998 71.199997C 27.099998 71.5 31.299999 67.600006 30.700001 63.100002C 30.099998 58.600002 27.099998 54.400002 22.599998 55C 18.1 55.599998 14.2 58.600002 14.5 63.100002M 11.5 79.300003C 13 74.800003 18.700001 72.399994 23.200001 73.600006C 27.700001 74.5 31 77.199997 34.599998 80.199997M 78.699997 32.200001C 74.5 38.199997 68.199997 42.699997 63.100002 47.800003C 60.399998 47.800003 57.699997 48.099998 55.300003 49.300003C 56.800003 46.900002 57.099998 44.199997 56.800003 41.5C 61.300003 35.800003 67.300003 31.299999 72.399994 25.900002C 74.199997 24.099998 76.899994 24.099998 78.699997 25.900002C 79.300003 26.799999 79.899994 28 79.899994 28.900002C 79.600006 30.099998 79.300003 31.299999 78.699997 32.200001M 66.100006 18.4C 64.600006 15.4 61.600002 12.7 58.300003 11.8C 46.300003 10.9 33.400002 8.8 21.700001 11.8C 21.700001 23.200001 18.700001 34.900002 21.700001 46.300003M 30.700001 27.700001C 31.900002 28.599998 32.5 30.099998 34 30.700001C 36.400002 29.5 37.900002 26.5 40 24.700001M 30.700001 43C 31.599998 44.5 33.099998 45.099998 34 46.300003C 36.099998 44.199997 38.199997 42.400002 40 40M 47.800003 29.200001C 49.300003 28.900002 50.800003 28.900002 52.300003 29.200001M 58.300003 40C 60.699997 41.800003 61.899998 45.099998 64.600006 46.300003M 16.299999 58C 20.5 61.300003 25.299999 63.399998 30.700001 63.100002M 39.699997 58C 43 62.199997 49.300003 65.5 54.099998 63.100002M 63.100002 58C 66.699997 61.899998 72.100006 63.699997 77.5 63.100002"></path><path d="M 37.947998 63.094002C 37.947083 67.541641 41.552353 71.147667 46 71.147667C 50.447647 71.147667 54.052917 67.541641 54.052002 63.094002C 54.052917 58.646351 50.447647 55.040337 46 55.040337C 41.552353 55.040337 37.947083 58.646351 37.947998 63.094002M 57.505001 80.350006C 55.237968 76.102249 50.814854 73.449249 46 73.449249C 41.18515 73.449249 36.762035 76.102249 34.494999 80.350006M 61.318001 63.094002C 61.317081 67.541641 64.922356 71.147667 69.369995 71.147667C 73.817642 71.147667 77.42292 67.541641 77.421997 63.094002C 77.42292 58.646351 73.817642 55.040337 69.369995 55.040337C 64.922356 55.040337 61.317081 58.646351 61.317997 63.094002M 80.5 79.207001C 77.803345 75.399895 73.348389 73.234589 68.688736 73.466202C 64.029083 73.697815 59.810814 76.294235 57.505001 80.349998M 14.578 63.094002C 14.577081 67.541641 18.182354 71.147667 22.630001 71.147667C 27.077646 71.147667 30.682919 67.541641 30.681999 63.094002C 30.682919 58.646351 27.077646 55.040337 22.630001 55.040337C 18.182354 55.040337 14.577081 58.646351 14.578 63.094002M 11.5 79.207001C 14.196652 75.399895 18.651611 73.234589 23.31126 73.466202C 27.970913 73.697815 32.189182 76.294235 34.494999 80.349998M 78.615997 32.089001L 63.016003 47.688999L 55.345001 49.222L 56.878002 41.554001L 72.477997 25.953999C 74.167313 24.265182 76.905701 24.265182 78.595001 25.953999L 78.612999 25.972C 79.42588 26.782066 79.883041 27.882278 79.883606 29.029879C 79.884163 30.177475 79.428085 31.278137 78.615997 32.089001ZM 66.121002 18.394001L 58.410995 11.65L 21.598 11.65L 21.598 46.161999M 30.802 27.754002L 33.868 30.823L 40.003002 24.688M 30.802 43.093002L 33.868 46.161999L 40.003002 40.024002M 47.674 29.286999L 52.276001 29.286999M 58.410995 40.024002L 64.545998 46.161999M 16.402 58C 20.164286 61.74287 25.399864 63.612717 30.681999 63.100002M 39.771999 58C 43.534515 61.7425 48.769913 63.612286 54.051998 63.099998M 63.142002 58C 66.905441 61.742989 72.14196 63.612785 77.425003 63.100002"></path></g></g></g><g id="g-root-tx_struktur_1uljqcg8xxy4l-stroke" data-item-order="0" transform="translate(650, 314)"></g><g id="g-root-tx_3_v2zyu88xsb2l-stroke" data-item-order="0" transform="translate(170, 494)"></g><g id="g-root-tx_1_mgpteo8xwjr7-stroke" data-item-order="0" transform="translate(170, 170)"></g><g id="g-root-tx_auswirku_1uuadk08xwhe0-stroke" data-item-order="0" transform="translate(110, 38)"></g><g id="g-root-tx_4_1um6gww8xscg0-stroke" data-item-order="0" transform="translate(650, 494)"></g><g id="g-root-ic_pric_8yeckg8xlb7o-stroke" data-item-order="0" transform="translate(302, 518)"><g id="ic_pric_8yeckg8xlb7o-stroke" fill="none" stroke-linecap="round" stroke-linejoin="round" stroke-miterlimit="4" stroke="#484848" stroke-width="2"><g><path d="M 31 16C 30.700001 24.099998 31 31.900002 31 40M 19 40C 18.1 31.900002 19.299999 24.099998 19 16M 19 28C 22.900002 27.099998 27.400002 26.5 31 28M 42.099998 16.299999C 45.400002 19 44.800003 22.900002 44.199997 27.099998C 43 26.200001 42.699997 25 42.099998 23.799999C 39.099998 25.299999 35.800003 28.299999 37 31.299999C 37 36.099998 40.599998 40.599998 45.099998 40C 49.900002 40.300003 53.800003 36.099998 53.5 31.299999C 55.300003 24.400002 49.300003 16.9 42.099998 16.299999M 59.5 16C 64.300003 15.1 69.699997 16.6 74.5 16M 67 16C 67 24.099998 67.600006 31.900002 67 40M 46 58C 45.099998 64 45.099998 70 46 76M 43 76C 45.099998 76 47.199997 75.699997 49 76M 43 58C 44.800003 58.600002 47.199997 58.600002 49 58M 64 76C 59.199997 77.5 55.300003 71.800003 55 67C 54.699997 61.899998 59.5 56.199997 64 58M 79 76C 77.199997 76.600006 75.100006 76 73 76C 71.199997 76 70.600006 74.5 70 73C 68.5 69.399994 69.399994 64.899994 70 61C 70.300003 59.5 71.5 58 73 58C 75.100006 58 77.199997 57.400002 79 58M 70 67C 71.800003 67.300003 73.899994 66.699997 76 67M 22 62.5C 22.299999 64.899994 19.9 67.300003 17.5 67C 16 66.699997 14.5 67 13 67C 13.9 64 12.1 61 13 58C 14.5 58.300003 16 58 17.5 58C 19.9 58 22.299999 60.100002 22 62.5M 13 76C 12.7 73 12.7 70 13 67M 37 62.5C 36.099998 64.899994 34.900002 66.699997 32.5 67C 31 67.300003 29.5 67 28 67C 27.099998 64 28 61 28 58C 29.5 57.699997 31 58 32.5 58C 34.900002 58 36.699997 60.100002 37 62.5M 28 76C 28.900002 73.300003 28.599998 70 28 67M 37 76C 34.900002 72.399994 31.299999 69.699997 28 67"></path><path d="M 31 16L 31 40M 19 40L 19 16M 19 28L 31 28M 42.153999 16.249001C 45.246162 18.944427 46.099342 23.402273 44.221001 27.049C 43.128689 26.286715 42.384895 25.120832 42.153999 23.808998C 39.000221 24.969404 36.930275 28.003239 37 31.363001C 36.896072 36.025074 40.588055 39.890244 45.249996 39.999996C 49.911942 39.890244 53.603924 36.025074 53.499996 31.362999C 53.534966 24.35079 48.897224 18.172855 42.153999 16.249001ZM 59.5 16L 74.5 16M 67 16L 67 40M 46 58L 46 76M 43 76L 49 76M 43 58L 49 58M 64 76C 59.029434 76 55.000004 71.970566 55.000004 67C 55.000004 62.029434 59.029434 58 64 58M 79 76L 73 76C 71.343147 76 70 74.656853 70 73L 70 61C 70 59.343147 71.343147 58 73 58L 79 58M 70 67L 76 67M 22 62.5C 22 64.985283 19.985283 67 17.5 67L 13 67L 13 58L 17.5 58C 19.985283 58 22 60.014721 22 62.5ZM 13 76L 13 67M 37 62.5C 37 64.985283 34.985283 67 32.5 67L 28 67L 28 58L 32.5 58C 34.985283 58 37 60.014721 37 62.5ZM 28 76L 28 67M 37 76L 28 67"></path></g></g></g><g id="g-root-tx_selbstre_dccffk8xsa9z-stroke" data-item-order="0" transform="translate(650, 590)"></g><g id="g-root-tx_ankereff_1uux44g8xqvpf-stroke" data-item-order="0" transform="translate(74, 554)"></g><g id="g-root-tx_selbstre_qn6gps8xsbuu-stroke" data-item-order="0" transform="translate(650, 554)"></g><g id="g-root-tx_ankereff_1hjglr48xqxac-stroke" data-item-order="0" transform="translate(98, 590)"></g><g id="g-root-ic_4_zpooww8xmosu-stroke" data-item-order="0" transform="translate(494, 518)"><g id="ic_4_zpooww8xmosu-stroke" fill="none" stroke-linecap="round" stroke-linejoin="round" stroke-miterlimit="4" stroke="#484848" stroke-width="2"><g><path d="M 37 79.899994C 37.300003 75.100006 36.099998 70.300003 37 65.5C 33.400002 63.100002 32.5 58.600002 30.700001 54.699997C 28.900002 50.800003 29.200001 45.699997 31.599998 42.400002M 60.699997 79.899994C 61.300003 77.5 60.399998 75.100006 60.699997 73C 61.899998 73.300003 63.100002 72.699997 64 73C 65.800003 73.300003 67.600006 72.399994 68.800003 70.899994C 70 69.699997 70.899994 67.899994 70.899994 66.100006C 70.899994 64 71.5 61.600002 70.899994 59.5C 72.399994 59.800003 73.899994 58.899998 75.100006 59.5C 75.399994 59.5 75.699997 59.199997 76 59.199997C 76.300003 59.199997 76.300003 58.899998 76.600006 58.600002C 76.600006 58.300003 76.899994 58 76.899994 58C 76.899994 57.699997 76.899994 57.400002 76.899994 57.099998C 75.100006 51.699997 72.399994 46.900002 70.899994 42.400002M 31.299999 43.300003C 30.700001 46.300003 40.300003 48.699997 51.099998 48.699997C 62.199997 49 72.100006 46.300003 70.899994 43.300003C 70 40.300003 61.899998 40 51.099998 37.599998M 37.599998 36.400002C 31 37.300003 24.099998 30.700001 25.599998 24.400002C 27.400002 18.1 31.299999 10.9 37.599998 12.4C 44.199997 14.2 49.300003 17.799999 49.599998 24.400002C 50.199997 31 44.199997 35.800003 37.599998 36.400002M 28.900002 32.5C 25.900002 34.300003 24.400002 37.599998 21.700001 39.699997"></path><path d="M 36.932533 79.750603L 36.932533 65.574699C 33.805962 62.6782 31.625469 58.905998 30.675791 54.751301C 29.726139 50.596298 30.05143 46.251701 31.609241 42.2845M 60.691299 79.750603L 60.691299 72.962494L 64.085495 72.962494C 65.885796 72.962494 67.612297 72.247299 68.885498 70.974098C 70.158401 69.701202 70.873604 67.974701 70.873604 66.1744L 70.873604 59.386002L 75.172897 59.386002C 75.448296 59.385704 75.719498 59.318199 75.963097 59.189804C 76.206696 59.061104 76.415497 58.875397 76.571198 58.6483C 76.727196 58.4212 76.825302 58.159599 76.857697 57.886002C 76.890099 57.6124 76.855301 57.335201 76.756599 57.078102C 74.708496 51.764801 72.947502 46.658501 70.801895 42.2845M 31.28125 43.161102C 31.28125 46.3009 40.182701 48.845798 51.163601 48.845798C 62.144196 48.845798 71.045799 46.3009 71.045799 43.161102C 71.045799 40.021599 62.144196 37.476608 51.163601 37.476608M 37.68055 36.40984C 31.069811 36.40984 25.71073 31.05076 25.71073 24.440022C 25.71073 17.82925 31.069811 12.470185 37.68055 12.470185C 44.291199 12.470185 49.650398 17.82925 49.650398 24.440022C 49.650398 31.05076 44.291199 36.40984 37.68055 36.40984ZM 28.98436 32.64064L 21.76849 39.69508"></path></g></g></g></g></g><path id="w1cwr02oa1wbnp" d="M65.283 12.757a.35.35 0 0 0 .584.157l5.203-5.141-6.183 3.523.396 1.461zm-2.216-11.7a.35.35 0 0 0-.522.305v3.111l3.276-1.868-2.754-1.548zm3.728 2.105l-4.25 2.421v2.445l6.391-3.644-2.141-1.222zm4.708 3.303a.35.35 0 0 0 0-.609l-1.592-.9-7.365 4.199v1.782a.35.35 0 0 0 .523.305l8.435-4.777z M44.542 2.513c0-.433.355-.783.792-.783s.792.35.792.783-.355.783-.792.783-.792-.35-.792-.783zm59.171 0c0-.433.355-.783.792-.783s.792.35.792.783-.355.783-.792.783-.792-.35-.792-.783zm-85.951 7.636h-1.27v-.487c-.276.201-.864.609-1.881.609-1.202 0-2.274-.794-2.137-2.078.118-1.106 1.153-1.584 1.848-1.727l2.17-.345c0-.539-.29-.956-1.064-1.006s-1.21.305-1.571 1.017l-1.124-.605c1.218-2.631 5.029-1.764 5.029.414v4.207zm-1.27-2.86c.006.396-.062 1.112-.819 1.59-.587.37-1.841.299-1.903-.395-.049-.555.461-.791.906-.898l1.816-.297zm72.662 2.86h-1.27v-.487c-.276.201-.864.609-1.881.609-1.202 0-2.274-.794-2.137-2.078.118-1.106 1.153-1.584 1.848-1.727l2.17-.345c0-.539-.29-.956-1.064-1.006s-1.21.305-1.571 1.017l-1.124-.605c1.218-2.631 5.029-1.764 5.029.414v4.207zm-1.27-2.86c.006.396-.062 1.112-.82 1.59-.587.37-1.841.299-1.903-.395-.049-.555.461-.791.906-.898l1.816-.297zM99.096 10.149H97.85v-8.45h1.246v4.895l2.68-2.559h1.738l-2.633 2.535 2.715 3.578h-1.556l-2.077-2.707-.867.844v1.863zm6.053-6.114h-1.255v6.113h1.255V4.035zm-59.2 0h-1.255v6.113h1.255V4.035zm5.584 6.113V1.697h1.255v2.695c.361-.346 1-.485 1.47-.485 1.452 0 2.477 1.082 2.457 2.448v3.792h-1.27v-3.68c0-.408-.214-1.339-1.315-1.339-.968 0-1.342.756-1.342 1.339v3.681h-1.255zm-4.76-4.894V4.039h.621a.45.45 0 0 0 .45-.45v-.855h1.251v1.305h1.309v1.215h-1.309v3.109c0 .293.105.664.648.664.365 0 .531-.035.736-.07v1.137s-.361.113-.857.113c-1.398 0-1.777-1.051-1.777-1.788V5.254h-1.071zM36.528 4.039h-1.394l2.191 6.106h1.125l1.234-3.918 1.238 3.918h1.129l2.188-6.106h-1.383l-1.359 3.93-1.256-3.93h-1.124l-1.242 3.957-1.348-3.957zM26.212 7.141c-.02 1.566 1.187 3.129 3.223 3.129 1.566 0 2.383-.918 2.734-1.719L31.172 8c-.315.399-.801 1.094-1.738 1.094-1.145 0-1.825-.781-1.891-1.52h4.625c.074-.284.148-.995-.03-1.559-.336-1.064-1.221-2.102-2.839-2.102s-3.088 1.152-3.088 3.227zm1.363-.75h3.348c-.055-.43-.566-1.301-1.623-1.301a1.79 1.79 0 0 0-1.725 1.301zm-8.758.75c.038 1.758 1.277 3.133 3.145 3.133 1.074 0 1.723-.477 1.961-.672v.547h1.242V1.703h-1.258v2.888c-.414-.36-1.062-.68-1.93-.68-1.91 0-3.198 1.473-3.16 3.23zm1.309-.08c0 1.119.723 1.978 1.836 1.978a1.88 1.88 0 0 0 1.94-1.904c0-1.371-1.011-1.99-1.972-1.99s-1.805.798-1.805 1.916zm76.683-.028C96.771 5.275 95.532 3.9 93.664 3.9c-1.074 0-1.723.477-1.961.672v-.547h-1.242v8.22h1.258V9.583c.414.36 1.063.68 1.93.68 1.91 0 3.198-1.473 3.16-3.23zm-1.309.08c0-1.119-.723-1.978-1.836-1.978a1.88 1.88 0 0 0-1.94 1.904c0 1.371 1.011 1.99 1.972 1.99S95.5 8.231 95.5 7.113zM106.441 10.173V4.036h1.254v.382c.361-.346 1-.485 1.47-.485 1.452 0 2.477 1.082 2.457 2.448v3.792h-1.27V6.492c0-.408-.214-1.339-1.315-1.339-.969 0-1.342.756-1.342 1.339v3.681h-1.254zm-30.383-.021V1.824h1.084l4.215 5.777V1.824h1.32v8.328h-1.094l-4.207-5.796v5.796h-1.319zM5.24 10.149H4V2.377h1.014l2.664 3.597 2.654-3.592h1.03v7.766h-1.256V4.762L7.678 8.068 5.24 4.742v5.407z" transform="translate(800, 782)" fill="#80808088" stroke="none"></path></svg>